<svg xmlns="http://www.w3.org/2000/svg" width="184" height="24"><path d="M12.3 19.24h3.4l-6.26-14h-3.2L0 19.24h3.32l1.24-3h6.5zm-6.7-5.46l2.22-5.36 2.22 5.36zm21.04-8.54l-4.32 10-4.26-10h-3.5l6.04 14h3.2l6.06-14zm4.38 14h3.24v-14h-3.24zm22.5-7.28a3.365 3.365 0 0 0 1.86-3.08c0-2.18-1.8-3.64-5.3-3.64h-6.84v14h7.24c3.68 0 5.6-1.4 5.6-3.82a3.457 3.457 0 0 0-2.56-3.46zm-3.84-4.28c1.58 0 2.44.54 2.44 1.64s-.86 1.66-2.44 1.66h-3.22v-3.3zm.56 9.12h-3.78v-3.46h3.78c1.68 0 2.58.56 2.58 1.74 0 1.2-.9 1.72-2.58 1.72zm15.08 2.68c4.4 0 7.66-3.06 7.66-7.24S69.72 5 65.32 5c-4.42 0-7.66 3.08-7.66 7.24s3.24 7.24 7.66 7.24zm0-2.76a4.271 4.271 0 0 1-4.38-4.48 4.271 4.271 0 0 1 4.38-4.48 4.271 4.271 0 0 1 4.38 4.48 4.271 4.271 0 0 1-4.38 4.48zm27.7-11.48l-3.26 9.92-3.2-9.92h-3l-3.3 9.84-3.16-9.84h-3.36l4.6 14h3.46l3.18-9.48 3.08 9.48h3.48l4.58-14zm4.9 14h10.26V16.6h-7.02V5.24h-3.24zm12.08 0h3.24v-14H110zm16.2-14v8.5l-6.96-8.5h-2.68v14h3.2v-8.5l6.98 8.5h2.66v-14zm15.98 10.88a5.143 5.143 0 0 1-2.52.6 4.321 4.321 0 0 1-4.54-4.48 4.31 4.31 0 0 1 4.58-4.48 4.738 4.738 0 0 1 3.62 1.58l2.08-1.92A7.463 7.463 0 0 0 139.54 5c-4.46 0-7.7 3.02-7.7 7.24s3.24 7.24 7.64 7.24a9.661 9.661 0 0 0 5.66-1.78v-5.68h-2.96z" fill="#3a3a3a"/><g transform="translate(160)"><g fill="#fff" stroke="#3a3a3a" stroke-width="2"><circle cx="12" cy="12" r="12" stroke="none"/><circle cx="12" cy="12" r="11" fill="none"/></g><circle cx="2.667" cy="2.667" r="2.667" transform="translate(15 10)" fill="#3a3a3a"/><circle cx="2.667" cy="2.667" r="2.667" transform="translate(11.333 4)" fill="#3a3a3a"/><circle cx="2.667" cy="2.667" r="2.667" transform="translate(7 9.667)" fill="#3a3a3a"/></g></svg>